<?xml version="1.0" encoding="UTF-8" standalone="no"?>
<!DOCTYPE svg PUBLIC "-//W3C//DTD SVG 1.1//EN" "http://www.w3.org/Graphics/SVG/1.1/DTD/svg11.dtd">
<!-- Generated by Microsoft Visio, SVG Export MassTransfer.svg Page-1 -->
<svg xmlns="http://www.w3.org/2000/svg" xmlns:xlink="http://www.w3.org/1999/xlink" xmlns:ev="http://www.w3.org/2001/xml-events"
		xmlns:v="http://schemas.microsoft.com/visio/2003/SVGExtensions/" width="11.6929in" height="8.26772in"
		viewBox="0 0 841.89 595.276" xml:space="preserve" color-interpolation-filters="sRGB" class="st14">
	<v:documentProperties v:langID="1033" v:metric="true" v:viewMarkup="false">
		<v:userDefs>
			<v:ud v:nameU="msvSubprocessMaster" v:prompt="" v:val="VT4(Rectangle)"/>
			<v:ud v:nameU="msvNoAutoConnect" v:val="VT0(1):26"/>
		</v:userDefs>
	</v:documentProperties>

	<style type="text/css">
	<![CDATA[
		.st1 {stroke:#fec000;stroke-linecap:round;stroke-linejoin:round;stroke-width:0.25}
		.st2 {stroke:#ff0000;stroke-dasharray:0.01,1.25;stroke-width:0.25}
		.st3 {fill:none;stroke:#d06d29;stroke-dasharray:1.75,1.25;stroke-width:0.25}
		.st4 {stroke:#3c63ac;stroke-width:0.25}
		.st5 {fill:none;stroke:none;stroke-width:0.25}
		.st6 {fill:#4672c4;font-family:Calibri;font-size:0.250008em}
		.st7 {stroke:#0c0c0c;stroke-width:0.1}
		.st8 {stroke:#000000;stroke-linecap:round;stroke-linejoin:round;stroke-width:0.25}
		.st9 {stroke:#c7c8c8;stroke-width:0.25}
		.st10 {marker-end:url(#mrkr3-84);stroke:#ff69b4;stroke-linecap:round;stroke-linejoin:round;stroke-width:1}
		.st11 {fill:#ff69b4;fill-opacity:1;stroke:#ff69b4;stroke-opacity:1;stroke-width:0.28409090909091}
		.st12 {stroke:#0c0c0c;stroke-linecap:round;stroke-linejoin:round;stroke-width:0.1}
		.st13 {stroke:#ff0000;stroke-dasharray:0,1.25;stroke-linecap:round;stroke-linejoin:round;stroke-width:0.25}
		.st14 {fill:none;fill-rule:evenodd;font-size:12px;overflow:visible;stroke-linecap:square;stroke-miterlimit:3}
	]]>
	</style>

	<defs id="Patterns_And_Gradients">
		<linearGradient id="grad0-31" x1="0" y1="0" x2="1" y2="0" gradientTransform="rotate(60 0.5 0.5)">
			<stop offset="0" stop-color="#e8ebf4" stop-opacity="1"/>
			<stop offset="0.24" stop-color="#f4f5f9" stop-opacity="1"/>
			<stop offset="0.54" stop-color="#feffff" stop-opacity="1"/>
		</linearGradient>
	</defs>
	<defs id="Markers">
		<g id="lend3">
			<path d="M 2 1 L 0 0 L 2 -1 " style="stroke-linecap:round;stroke-linejoin:round;fill:none"/>
		</g>
		<marker id="mrkr3-84" class="st11" v:arrowType="3" v:arrowSize="2" orient="auto" markerUnits="strokeWidth"
				overflow="visible">
			<use xlink:href="#lend3" transform="scale(-3.52,-3.52) "/>
		</marker>
	</defs>
	<g v:mID="0" v:index="1" v:groupContext="foregroundPage">
		<v:userDefs>
			<v:ud v:nameU="msvThemeOrder" v:val="VT0(0):26"/>
		</v:userDefs>
		<title>Page-1</title>
		<v:pageProperties v:drawingScale="0.0393701" v:pageScale="0.0393701" v:drawingUnits="24" v:shadowOffsetX="8.50394"
				v:shadowOffsetY="-8.50394"/>
		<v:layer v:name="Connector" v:index="0"/>
		<g id="shape159-1" v:mID="159" v:groupContext="shape" transform="translate(811.843,279.526) rotate(90)">
			<title>Sheet.159</title>
			<path d="M0 595.28 L33.71 595.28" class="st1"/>
		</g>
		<g id="shape160-4" v:mID="160" v:groupContext="shape" transform="translate(811.843,136.417) rotate(90)">
			<title>Sheet.160</title>
			<path d="M0 595.28 L184.77 595.28" class="st1"/>
		</g>
		<g id="shape43-7" v:mID="43" v:groupContext="shape" transform="translate(788.74,136.417) rotate(90)">
			<title>Sheet.43</title>
			<path d="M0 595.28 L184.25 595.28" class="st1"/>
		</g>
		<g id="shape44-10" v:mID="44" v:groupContext="shape" transform="translate(794.372,136.417) rotate(90)">
			<title>Sheet.44</title>
			<path d="M0 595.28 L184.49 595.28" class="st1"/>
		</g>
		<g id="shape45-13" v:mID="45" v:groupContext="shape" transform="translate(802.205,136.417) rotate(90)">
			<title>Sheet.45</title>
			<path d="M0 595.28 L184.72 595.28" class="st1"/>
		</g>
		<g id="shape37-16" v:mID="37" v:groupContext="shape" transform="translate(832.795,136.063) rotate(90)">
			<title>Sheet.37</title>
			<path d="M0 595.28 L185.02 595.28" class="st1"/>
		</g>
		<g id="shape40-19" v:mID="40" v:groupContext="shape" transform="translate(843.307,136.417) rotate(90)">
			<title>Sheet.40</title>
			<path d="M0 595.28 L185.31 595.28" class="st1"/>
		</g>
		<g id="shape24-22" v:mID="24" v:groupContext="shape" transform="translate(198.992,-450.089)">
			<title>Sheet.24</title>
			<path d="M39.12 577.03 L0 577.03 L0 595.28 L39.12 595.28" class="st2"/>
		</g>
		<g id="shape39-25" v:mID="39" v:groupContext="shape" transform="translate(138.898,-404.291)">
			<title>Circle</title>
			<v:userDefs>
				<v:ud v:nameU="visVersion" v:val="VT0(15):26"/>
			</v:userDefs>
			<path d="M0 540.71 A54.5669 54.5669 0 0 1 109.13 540.71 A54.5669 54.5669 0 1 1 -0 540.71 Z" class="st3"/>
		</g>
		<g id="group42-27" transform="translate(206.929,-452.126)" v:mID="42" v:groupContext="group">
			<title>Sheet.42</title>
			<g id="shape15-28" v:mID="15" v:groupContext="shape">
				<title>Sheet.15</title>
				<path d="M30.26 581.1 L0 581.1 L0 595.28" class="st4"/>
			</g>
			<g id="shape16-33" v:mID="16" v:groupContext="shape">
				<title>Sheet.16</title>
				<path d="M0 595.28 L30.26 595.28" class="st4"/>
			</g>
		</g>
		<g id="shape57-37" v:mID="57" v:groupContext="shape" transform="translate(190.476,-379.528)">
			<title>Sheet.57</title>
			<desc>CS</desc>
			<v:textBlock v:margins="rect(4,4,4,4)" v:tabSpace="42.5197"/>
			<v:textRect cx="6.16721" cy="591.57" width="12.34" height="7.4111"/>
			<rect x="0" y="587.864" width="12.3344" height="7.4111" class="st5"/>
			<text x="4.68" y="592.47" class="st6" v:langID="1033"><v:paragraph v:horizAlign="1"/><v:tabList/>CS</text>		</g>
		<g id="shape76-40" v:mID="76" v:groupContext="shape" transform="translate(197.927,-370.153)">
			<title>Sheet.76</title>
			<desc>CSi</desc>
			<v:textBlock v:margins="rect(4,4,4,4)" v:tabSpace="42.5197"/>
			<v:textRect cx="6.16721" cy="591.57" width="12.34" height="7.4111"/>
			<rect x="0" y="587.864" width="12.3344" height="7.4111" class="st5"/>
			<text x="4.33" y="592.47" class="st6" v:langID="1033"><v:paragraph v:horizAlign="1"/><v:tabList/>CSi</text>		</g>
		<g id="shape77-43" v:mID="77" v:groupContext="shape" transform="translate(203.597,-359.624)">
			<title>Sheet.77</title>
			<desc>CPi</desc>
			<v:textBlock v:margins="rect(4,4,4,4)" v:tabSpace="42.5197"/>
			<v:textRect cx="6.16721" cy="591.57" width="12.34" height="7.4111"/>
			<rect x="0" y="587.864" width="12.3344" height="7.4111" class="st5"/>
			<text x="4.25" y="592.47" class="st6" v:langID="1033"><v:paragraph v:horizAlign="1"/><v:tabList/>CPi</text>		</g>
		<g id="shape78-46" v:mID="78" v:groupContext="shape" transform="translate(209.764,-349.646)">
			<title>Sheet.78</title>
			<desc>CP</desc>
			<v:textBlock v:margins="rect(4,4,4,4)" v:tabSpace="42.5197"/>
			<v:textRect cx="6.16721" cy="591.845" width="12.34" height="6.86054"/>
			<rect x="0" y="588.415" width="12.3344" height="6.86054" class="st5"/>
			<text x="4.59" y="592.75" class="st6" v:langID="1033"><v:paragraph v:horizAlign="1"/><v:tabList/>CP</text>		</g>
		<g id="shape79-49" v:mID="79" v:groupContext="shape" transform="translate(244.699,-335.867)">
			<title>Sheet.79</title>
			<desc>CB</desc>
			<v:textBlock v:margins="rect(4,4,4,4)" v:tabSpace="42.5197"/>
			<v:textRect cx="6.16721" cy="591.845" width="12.34" height="6.86054"/>
			<rect x="0" y="588.415" width="12.3344" height="6.86054" class="st5"/>
			<text x="4.55" y="592.75" class="st6" v:langID="1033"><v:paragraph v:horizAlign="1"/><v:tabList/>CB</text>		</g>
		<g id="shape80-52" v:mID="80" v:groupContext="shape" transform="translate(231.307,-345.732)">
			<title>Sheet.80</title>
			<desc>CPB</desc>
			<v:textBlock v:margins="rect(4,4,4,4)" v:tabSpace="42.5197"/>
			<v:textRect cx="6.80315" cy="592.346" width="13.61" height="5.85827"/>
			<rect x="0" y="589.417" width="13.6063" height="5.85827" class="st5"/>
			<text x="4.41" y="593.25" class="st6" v:langID="1033"><v:paragraph v:horizAlign="1"/><v:tabList/>CPB</text>		</g>
		<g id="shape82-55" v:mID="82" v:groupContext="shape" transform="translate(193.323,-374.446)">
			<title>Sheet.82</title>
			<path d="M0 587.91 L5.77 587.91 A9.05288 9.05288 0 0 1 13.61 595.28" class="st7"/>
		</g>
		<g id="shape100-58" v:mID="100" v:groupContext="shape" transform="translate(198.992,-450.089)">
			<title>Sheet.100</title>
			<path d="M37.81 577.03 L0 577.03 L0 595.28 L37.81 595.28" class="st2"/>
		</g>
		<g id="shape104-61" v:mID="104" v:groupContext="shape" transform="translate(216.567,-453.543)">
			<title>Sheet.104</title>
			<path d="M20.69 583.94 L0 583.94 L0 595.28 L20.69 595.28" class="st2"/>
		</g>
		<g id="shape119-64" v:mID="119" v:groupContext="shape" transform="translate(216.567,-453.543)">
			<title>Sheet.119</title>
			<path d="M10.63 583.94 L0 583.94 L0 595.28 L10.63 595.28" class="st2"/>
		</g>
		<g id="shape124-67" v:mID="124" v:groupContext="shape" transform="translate(189.409,736.505) rotate(-175.397)">
			<title>Sheet.124</title>
			<path d="M-0 595.28 A44.2913 44.2913 45 0 1 88.3 595.28" class="st8"/>
		</g>
		<g id="shape125-70" v:mID="125" v:groupContext="shape" transform="translate(101.397,-457.292) rotate(-4.60344)">
			<title>Sheet.125</title>
			<path d="M-0 595.28 A44.2913 44.2913 45 0 1 88.3 595.28" class="st8"/>
		</g>
		<g id="shape127-73" v:mID="127" v:groupContext="shape" transform="translate(206.929,-452.126)">
			<title>Sheet.127</title>
			<path d="M0 595.28 L30.26 595.28" class="st8"/>
		</g>
		<g id="shape128-76" v:mID="128" v:groupContext="shape" transform="translate(206.929,-452.126)">
			<title>Sheet.128</title>
			<path d="M30.26 581.1 L0 581.1 L0 595.28" class="st9"/>
		</g>
		<g id="shape130-79" v:mID="130" v:groupContext="shape" transform="translate(190.783,-458.852) rotate(-0.258091)">
			<title>Sheet.130</title>
			<path d="M0 595.28 L78.66 595.28" class="st10"/>
		</g>
		<g id="shape131-85" v:mID="131" v:groupContext="shape" transform="translate(206.929,-335.045)">
			<title>Sheet.131</title>
			<path d="M0 565.51 A10.4863 10.4863 -180 0 0 9.64 575.43 L30.59 583.94 A13.7617 13.7617 0 0 1 41.1 595.28 L58.82 595.28"
					class="st7"/>
		</g>
		<g id="shape150-88" v:mID="150" v:groupContext="shape" transform="translate(190.488,-340.39)">
			<title>Sheet.150</title>
			<desc>CS</desc>
			<v:textBlock v:margins="rect(4,4,4,4)" v:tabSpace="42.5197"/>
			<v:textRect cx="6.16721" cy="591.57" width="12.34" height="7.4111"/>
			<rect x="0" y="587.864" width="12.3344" height="7.4111" class="st5"/>
			<text x="4.68" y="592.47" class="st6" v:langID="1033"><v:paragraph v:horizAlign="1"/><v:tabList/>CS</text>		</g>
		<g id="shape151-91" v:mID="151" v:groupContext="shape" transform="translate(198.425,-330.793)">
			<title>Sheet.151</title>
			<desc>CSi</desc>
			<v:textBlock v:margins="rect(4,4,4,4)" v:tabSpace="42.5197"/>
			<v:textRect cx="6.16721" cy="591.57" width="12.34" height="7.4111"/>
			<rect x="0" y="587.864" width="12.3344" height="7.4111" class="st5"/>
			<text x="4.33" y="592.47" class="st6" v:langID="1033"><v:paragraph v:horizAlign="1"/><v:tabList/>CSi</text>		</g>
		<g id="shape152-94" v:mID="152" v:groupContext="shape" transform="translate(203.099,-321.418)">
			<title>Sheet.152</title>
			<desc>CPi</desc>
			<v:textBlock v:margins="rect(4,4,4,4)" v:tabSpace="42.5197"/>
			<v:textRect cx="6.16721" cy="591.57" width="12.34" height="7.4111"/>
			<rect x="0" y="587.864" width="12.3344" height="7.4111" class="st5"/>
			<text x="4.25" y="592.47" class="st6" v:langID="1033"><v:paragraph v:horizAlign="1"/><v:tabList/>CPi</text>		</g>
		<g id="shape153-97" v:mID="153" v:groupContext="shape" transform="translate(209.764,-309.759)">
			<title>Sheet.153</title>
			<desc>CP</desc>
			<v:textBlock v:margins="rect(4,4,4,4)" v:tabSpace="42.5197"/>
			<v:textRect cx="6.16721" cy="591.845" width="12.34" height="6.86054"/>
			<rect x="0" y="588.415" width="12.3344" height="6.86054" class="st5"/>
			<text x="4.59" y="592.75" class="st6" v:langID="1033"><v:paragraph v:horizAlign="1"/><v:tabList/>CP</text>		</g>
		<g id="shape154-100" v:mID="154" v:groupContext="shape" transform="translate(247.036,-297.599)">
			<title>Sheet.154</title>
			<desc>CB</desc>
			<v:textBlock v:margins="rect(4,4,4,4)" v:tabSpace="42.5197"/>
			<v:textRect cx="6.16721" cy="591.845" width="12.34" height="6.86054"/>
			<rect x="0" y="588.415" width="12.3344" height="6.86054" class="st5"/>
			<text x="4.55" y="592.75" class="st6" v:langID="1033"><v:paragraph v:horizAlign="1"/><v:tabList/>CB</text>		</g>
		<g id="shape155-103" v:mID="155" v:groupContext="shape" transform="translate(230.173,-299.055)">
			<title>Sheet.155</title>
			<desc>CPB</desc>
			<v:textBlock v:margins="rect(4,4,4,4)" v:tabSpace="42.5197"/>
			<v:textRect cx="6.80315" cy="592.346" width="13.61" height="5.85827"/>
			<rect x="0" y="589.417" width="13.6063" height="5.85827" class="st5"/>
			<text x="4.41" y="593.25" class="st6" v:langID="1033"><v:paragraph v:horizAlign="1"/><v:tabList/>CPB</text>		</g>
		<g id="shape156-106" v:mID="156" v:groupContext="shape" transform="translate(193.335,-335.308)">
			<title>Sheet.156</title>
			<path d="M0 587.91 L5.77 587.91 A9.05288 9.05288 0 0 1 13.61 595.28" class="st7"/>
		</g>
		<g id="shape162-109" v:mID="162" v:groupContext="shape" transform="translate(632.294,-143.116) rotate(45.8634)">
			<title>Sheet.162</title>
			<path d="M0 592.68 A10.4863 10.4863 -57.63 0 0 13.82 592.68" class="st12"/>
		</g>
		<g id="shape163-112" v:mID="163" v:groupContext="shape" transform="translate(216.567,-299.045)">
			<title>Sheet.163</title>
			<path d="M0 578.55 L31.46 595.28 L46.49 595.28" class="st7"/>
		</g>
		<g id="shape164-115" v:mID="164" v:groupContext="shape" transform="translate(666.46,-119.917) rotate(51.0213)">
			<title>Sheet.164</title>
			<path d="M0 595.28 L20.45 595.28" class="st13"/>
		</g>
		<g id="shape166-118" v:mID="166" v:groupContext="shape" transform="translate(671.926,-99.3871) rotate(52.5895)">
			<title>Sheet.166</title>
			<path d="M0 595.28 L17.83 595.28" class="st13"/>
		</g>
		<g id="shape206-121" v:mID="206" v:groupContext="shape" transform="translate(212.736,-320.851)">
			<title>Sheet.206</title>
			<desc>CS*</desc>
			<v:textBlock v:margins="rect(4,4,4,4)" v:tabSpace="42.5197"/>
			<v:textRect cx="6.80315" cy="591.57" width="13.61" height="7.4111"/>
			<rect x="0" y="587.864" width="13.6063" height="7.4111" class="st5"/>
			<text x="4.57" y="592.47" class="st6" v:langID="1033"><v:paragraph v:horizAlign="1"/><v:tabList/>CS*</text>		</g>
		<g id="shape207-124" v:mID="207" v:groupContext="shape" transform="translate(189.921,-328.505)">
			<title>Sheet.207</title>
			<desc>CP*</desc>
			<v:textBlock v:margins="rect(4,4,4,4)" v:tabSpace="42.5197"/>
			<v:textRect cx="6.80315" cy="591.57" width="13.61" height="7.4111"/>
			<rect x="0" y="587.864" width="13.6063" height="7.4111" class="st5"/>
			<text x="4.48" y="592.47" class="st6" v:langID="1033"><v:paragraph v:horizAlign="1"/><v:tabList/>CP*</text>		</g>
	</g>
</svg>
